<svg aria-hidden="true" style="position: absolute; width: 0; height: 0; overflow: hidden;" version="1.1" xmlns="http://www.w3.org/2000/svg" xmlns:xlink="http://www.w3.org/1999/xlink">
<defs>


<symbol id="icon-info" viewBox="0 0 32 32">
<path d="M14.4 24h3.2v-9.6h-3.2v9.6zM16 11.2c0.453 0 0.833-0.153 1.14-0.46s0.46-0.687 0.46-1.14c0-0.453-0.153-0.833-0.46-1.14s-0.687-0.46-1.14-0.46c-0.453 0-0.833 0.153-1.14 0.46s-0.46 0.687-0.46 1.14c0 0.453 0.153 0.833 0.46 1.14s0.687 0.46 1.14 0.46zM16 32c-2.213 0-4.293-0.42-6.24-1.26s-3.64-1.98-5.080-3.42c-1.44-1.44-2.58-3.133-3.42-5.080s-1.26-4.027-1.26-6.24c0-2.213 0.42-4.293 1.26-6.24s1.98-3.64 3.42-5.080c1.44-1.44 3.133-2.58 5.080-3.42s4.027-1.26 6.24-1.26c2.213 0 4.293 0.42 6.24 1.26s3.64 1.98 5.080 3.42c1.44 1.44 2.58 3.133 3.42 5.080s1.26 4.027 1.26 6.24c0 2.213-0.42 4.293-1.26 6.24s-1.98 3.64-3.42 5.080c-1.44 1.44-3.133 2.58-5.080 3.42s-4.027 1.26-6.24 1.26zM16 28.8c3.573 0 6.6-1.24 9.080-3.72s3.72-5.507 3.72-9.080c0-3.573-1.24-6.6-3.72-9.080s-5.507-3.72-9.080-3.72c-3.573 0-6.6 1.24-9.080 3.72s-3.72 5.507-3.72 9.080c0 3.573 1.24 6.6 3.72 9.080s5.507 3.72 9.080 3.72z"></path>
</symbol>

<symbol id="icon-stylus" viewBox="0 0 32 32">
<path fill="none" stroke="#1c1b1f" stroke-width="1.3333" stroke-miterlimit="4" stroke-linecap="butt" stroke-linejoin="miter" style="stroke: var(--color1, #1c1b1f)" d="M3.15 3.119h25.7v25.7h-25.7v-25.7z"></path>
<path d="M16.188 20.928l8.373-8.373c0.045-0.045 0.068-0.1 0.068-0.165s-0.023-0.12-0.068-0.165l-0.981-0.981c-0.045-0.045-0.1-0.068-0.165-0.068s-0.12 0.023-0.165 0.068l-8.373 8.373 1.31 1.31zM9.864 22.752c-1.499-0.084-2.624-0.417-3.376-1s-1.128-1.407-1.128-2.473c0-1.021 0.428-1.849 1.285-2.484s2.047-1.020 3.572-1.154c0.733-0.063 1.282-0.196 1.648-0.397s0.549-0.481 0.549-0.837c0-0.495-0.248-0.872-0.743-1.133s-1.308-0.447-2.437-0.561l0.138-1.502c1.549 0.147 2.696 0.481 3.439 1.002s1.115 1.252 1.115 2.194c0 0.8-0.307 1.434-0.922 1.902s-1.506 0.75-2.676 0.844c-1.153 0.097-2.017 0.322-2.593 0.674s-0.864 0.837-0.864 1.452c0 0.627 0.24 1.093 0.72 1.398s1.258 0.493 2.335 0.563l-0.062 1.512zM16.424 22.832l-3.45-3.45 9.412-9.402c0.297-0.297 0.645-0.444 1.042-0.441s0.745 0.15 1.042 0.441l1.357 1.357c0.297 0.297 0.446 0.646 0.446 1.047s-0.149 0.749-0.446 1.047l-9.402 9.402zM13.058 23.527c-0.227 0.054-0.428-0.005-0.601-0.178s-0.232-0.373-0.178-0.601l0.696-3.366 3.45 3.45-3.366 0.696z"></path>
<path fill="none" stroke="#1c1b1f" stroke-width="1.3333" stroke-miterlimit="4" stroke-linecap="round" stroke-linejoin="miter" style="stroke: var(--color1, #1c1b1f)" d="M9.449 2.867v9.071"></path>
<path fill="none" stroke="#1c1b1f" stroke-width="1.3333" stroke-miterlimit="4" stroke-linecap="round" stroke-linejoin="miter" style="stroke: var(--color1, #1c1b1f)" d="M9.953 22.016v6.551"></path>
</symbol>

<symbol id="icon-wb_iridescent" viewBox="0 0 32 32">
<path d="M6.667 20.067v-8h18.667v8h-18.667zM14.667 6.667v-4h2.667v4h-2.667zM24.933 10.4l-1.867-1.867 2.4-2.4 1.867 1.867-2.4 2.4zM14.667 29.333v-4h2.667v4h-2.667zM25.467 26l-2.4-2.4 1.867-1.867 2.4 2.4-1.867 1.867zM7.067 10.4l-2.4-2.4 1.867-1.867 2.4 2.4-1.867 1.867zM6.533 26l-1.867-1.867 2.4-2.4 1.867 1.867-2.4 2.4zM9.333 17.4h13.333v-2.667h-13.333v2.667z"></path>
</symbol>
<symbol id="icon-vector-left" viewBox="0 0 32 32">
<path d="M6 31.887v-4.236h14.2c2.1 0 3.925-0.706 5.475-2.118s2.325-3.177 2.325-5.296-0.775-3.883-2.325-5.296c-1.55-1.412-3.375-2.118-5.475-2.118h-12.6l5.2 5.507-2.8 2.965-10-10.591 10-10.591 2.8 2.966-5.2 5.507h12.6c3.233 0 6.008 1.112 8.325 3.336s3.475 4.995 3.475 8.314c0 3.319-1.158 6.090-3.475 8.314s-5.092 3.336-8.325 3.336h-14.2z"></path>
</symbol>
<symbol id="icon-vector-right" viewBox="0 0 32 32">
<path d="M11.8 31.887c-3.233 0-6.008-1.112-8.325-3.336s-3.475-4.996-3.475-8.314c0-3.319 1.158-6.090 3.475-8.314s5.092-3.336 8.325-3.336h12.6l-5.2-5.507 2.8-2.966 10 10.591-10 10.591-2.8-2.965 5.2-5.507h-12.6c-2.1 0-3.925 0.706-5.475 2.118s-2.325 3.177-2.325 5.296c0 2.118 0.775 3.883 2.325 5.296s3.375 2.118 5.475 2.118h14.2v4.236h-14.2z"></path>
</symbol>

<symbol id="icon-vector-right-shadow" viewBox="0 0 32 32">
<path fill="rgba(0, 0, 0, 0.30)" d="M11.8 31.887c-3.233 0-6.008-1.112-8.325-3.336s-3.475-4.996-3.475-8.314c0-3.319 1.158-6.090 3.475-8.314s5.092-3.336 8.325-3.336h12.6l-5.2-5.507 2.8-2.966 10 10.591-10 10.591-2.8-2.965 5.2-5.507h-12.6c-2.1 0-3.925 0.706-5.475 2.118s-2.325 3.177-2.325 5.296c0 2.118 0.775 3.883 2.325 5.296s3.375 2.118 5.475 2.118h14.2v4.236h-14.2z"></path>
</symbol>

<symbol id="icon-vector-link" viewBox="0 0 30 32">
<path d="M24 32c-1.333 0-2.467-0.467-3.4-1.4s-1.4-2.067-1.4-3.4c0-0.187 0.013-0.38 0.040-0.58s0.067-0.38 0.12-0.54l-11.28-6.56c-0.453 0.4-0.96 0.713-1.52 0.94s-1.147 0.34-1.76 0.34c-1.333 0-2.467-0.467-3.4-1.4s-1.4-2.067-1.4-3.4c0-1.333 0.467-2.467 1.4-3.4s2.067-1.4 3.4-1.4c0.613 0 1.2 0.113 1.76 0.34s1.067 0.54 1.52 0.94l11.28-6.56c-0.053-0.16-0.093-0.34-0.12-0.54s-0.040-0.393-0.040-0.58c0-1.333 0.467-2.467 1.4-3.4s2.067-1.4 3.4-1.4c1.333 0 2.467 0.467 3.4 1.4s1.4 2.067 1.4 3.4c0 1.333-0.467 2.467-1.4 3.4s-2.067 1.4-3.4 1.4c-0.613 0-1.2-0.113-1.76-0.34s-1.067-0.54-1.52-0.94l-11.28 6.56c0.053 0.16 0.093 0.34 0.12 0.54s0.040 0.393 0.040 0.58c0 0.187-0.013 0.38-0.040 0.58s-0.067 0.38-0.12 0.54l11.28 6.56c0.453-0.4 0.96-0.713 1.52-0.94s1.147-0.34 1.76-0.34c1.333 0 2.467 0.467 3.4 1.4s1.4 2.067 1.4 3.4c0 1.333-0.467 2.467-1.4 3.4s-2.067 1.4-3.4 1.4zM24 6.4c0.453 0 0.833-0.153 1.14-0.46s0.46-0.687 0.46-1.14c0-0.453-0.153-0.833-0.46-1.14s-0.687-0.46-1.14-0.46c-0.453 0-0.833 0.153-1.14 0.46s-0.46 0.687-0.46 1.14c0 0.453 0.153 0.833 0.46 1.14s0.687 0.46 1.14 0.46zM4.8 17.6c0.453 0 0.833-0.153 1.14-0.46s0.46-0.687 0.46-1.14c0-0.453-0.153-0.833-0.46-1.14s-0.687-0.46-1.14-0.46c-0.453 0-0.833 0.153-1.14 0.46s-0.46 0.687-0.46 1.14c0 0.453 0.153 0.833 0.46 1.14s0.687 0.46 1.14 0.46zM24 28.8c0.453 0 0.833-0.153 1.14-0.46s0.46-0.687 0.46-1.14c0-0.453-0.153-0.833-0.46-1.14s-0.687-0.46-1.14-0.46c-0.453 0-0.833 0.153-1.14 0.46s-0.46 0.687-0.46 1.14c0 0.453 0.153 0.833 0.46 1.14s0.687 0.46 1.14 0.46z"></path>
</symbol>
<symbol id="icon-add_a_photo" viewBox="0 0 42 32">
<path fill="#000" opacity="0.8" style="fill: var(--color1, #000)" d="M5.133 28.286c-0.789 0-1.465-0.28-2.027-0.839s-0.843-1.232-0.843-2.018v-17.144c0-0.786 0.281-1.458 0.843-2.018s1.238-0.839 2.027-0.839h4.521l2.655-2.857h8.612v2.857h-7.356l-2.619 2.857h-5.813v17.144h22.964v-12.858h2.871v12.858c0 0.786-0.281 1.458-0.843 2.018s-1.238 0.839-2.027 0.839h-22.964zM28.097 8.285v-2.857h-2.87v-2.857h2.87v-2.857h2.871v2.857h2.871v2.857h-2.871v2.857h-2.871zM16.615 23.286c1.794 0 3.319-0.625 4.575-1.875s1.884-2.768 1.884-4.554c0-1.786-0.628-3.304-1.884-4.554s-2.781-1.875-4.575-1.875c-1.794 0-3.319 0.625-4.575 1.875s-1.884 2.768-1.884 4.554c0 1.786 0.628 3.304 1.884 4.554s2.781 1.875 4.575 1.875zM16.615 20.428c-1.005 0-1.854-0.345-2.548-1.036s-1.041-1.536-1.041-2.536c0-1 0.347-1.845 1.041-2.536s1.543-1.036 2.548-1.036c1.005 0 1.854 0.345 2.548 1.036s1.041 1.536 1.041 2.536c0 1-0.347 1.845-1.041 2.536s-1.543 1.036-2.548 1.036z"></path>
<path fill="#000" opacity="0.5" style="fill: var(--color1, #000)" d="M37.416 31.711l-3.047-4.359h6.095l-3.047 4.359z"></path>
</symbol>
<symbol id="icon-help" viewBox="0 0 33 32">
<path d="M16.638 25.599c0.56 0 1.033-0.193 1.42-0.58s0.58-0.86 0.58-1.42c0-0.56-0.193-1.033-0.58-1.42s-0.86-0.58-1.42-0.58c-0.56 0-1.033 0.193-1.42 0.58s-0.58 0.86-0.58 1.42c0 0.56 0.193 1.033 0.58 1.42s0.86 0.58 1.42 0.58zM15.198 19.439h2.96c0-0.88 0.1-1.573 0.3-2.080s0.767-1.2 1.7-2.080c0.693-0.693 1.24-1.353 1.64-1.98s0.6-1.38 0.6-2.26c0-1.493-0.547-2.64-1.64-3.44s-2.387-1.2-3.88-1.2c-1.52 0-2.753 0.4-3.7 1.2s-1.607 1.76-1.98 2.88l2.64 1.040c0.133-0.48 0.433-1 0.9-1.56s1.18-0.84 2.14-0.84c0.853 0 1.493 0.233 1.92 0.7s0.64 0.98 0.64 1.54c0 0.533-0.16 1.033-0.48 1.5s-0.72 0.9-1.2 1.3c-1.173 1.040-1.893 1.827-2.16 2.36s-0.4 1.507-0.4 2.92zM16.718 31.999c-2.213 0-4.293-0.42-6.24-1.26s-3.64-1.98-5.080-3.42c-1.44-1.44-2.58-3.133-3.42-5.080s-1.26-4.027-1.26-6.24c0-2.213 0.42-4.293 1.26-6.24s1.98-3.64 3.42-5.080c1.44-1.44 3.133-2.58 5.080-3.42s4.027-1.26 6.24-1.26c2.213 0 4.293 0.42 6.24 1.26s3.64 1.98 5.080 3.42c1.44 1.44 2.58 3.133 3.42 5.080s1.26 4.027 1.26 6.24c0 2.213-0.42 4.293-1.26 6.24s-1.98 3.64-3.42 5.080c-1.44 1.44-3.133 2.58-5.080 3.42s-4.027 1.26-6.24 1.26zM16.718 28.799c3.573 0 6.6-1.24 9.080-3.72s3.72-5.507 3.72-9.080c0-3.573-1.24-6.6-3.72-9.080s-5.507-3.72-9.080-3.72c-3.573 0-6.6 1.24-9.080 3.72s-3.72 5.507-3.72 9.080c0 3.573 1.24 6.6 3.72 9.080s5.507 3.72 9.080 3.72z"></path>
</symbol>
<symbol id="icon-vector-close" viewBox="0 0 31 32">
<path d="M2.987 30.922l-2.088-2.389 11.869-12.107-12.768-13.313 2.163-2.035 12.771 13.074 12.559-13.073 2.375 2.035-12.65 13.313 12.088 12.107-2.425 2.389-11.948-12.36-11.948 12.36z"></path>
</symbol>

<symbol id="icon-stroke_partial" viewBox="0 0 31 32">
<path d="M15.352 28.874c-1.781 0-3.454-0.338-5.021-1.014s-2.929-1.593-4.087-2.752-2.076-2.521-2.752-4.087c-0.676-1.566-1.014-3.24-1.014-5.021s0.338-3.454 1.014-5.021c0.676-1.566 1.593-2.929 2.752-4.087s2.521-2.076 4.087-2.752c1.566-0.676 3.24-1.014 5.021-1.014s3.454 0.338 5.021 1.014c1.566 0.676 2.929 1.593 4.087 2.752s2.076 2.521 2.752 4.087c0.676 1.566 1.014 3.24 1.014 5.021s-0.338 3.454-1.014 5.021c-0.676 1.566-1.593 2.929-2.752 4.087s-2.521 2.076-4.087 2.752c-1.566 0.676-3.24 1.014-5.021 1.014zM24.299 21.149h-12.326l-1.287 1.287h12.745c0.172-0.215 0.327-0.424 0.467-0.628s0.274-0.424 0.402-0.66zM25.586 17.287h-9.72l-1.287 1.287h10.749c0.043-0.215 0.086-0.424 0.129-0.628s0.086-0.424 0.129-0.66zM25.329 13.425h-5.6l-1.287 1.287h7.145c-0.043-0.236-0.086-0.456-0.129-0.66s-0.086-0.413-0.129-0.628zM23.494 9.692l-1.159 1.159h1.963c-0.107-0.215-0.231-0.413-0.37-0.595s-0.284-0.37-0.434-0.563zM7.209 22.308l14.515-14.451c-0.88-0.687-1.856-1.218-2.929-1.593s-2.221-0.563-3.444-0.563c-2.875 0-5.31 0.998-7.306 2.993s-2.993 4.431-2.993 7.306c0 1.202 0.188 2.333 0.563 3.395s0.907 2.033 1.593 2.913zM15.352 26.299c0.923 0 1.802-0.107 2.639-0.322s1.631-0.536 2.382-0.966h-10.041c0.751 0.429 1.545 0.751 2.382 0.966s1.717 0.322 2.639 0.322z"></path>
</symbol>
<symbol id="icon-light_group" viewBox="0 0 32 32">
<path d="M4.414 28.874v-2.575h10.299v2.575h-10.299zM22.437 27.586c-0.708 0-1.314-0.252-1.818-0.756s-0.756-1.11-0.756-1.818h-3.862c-0.365 0-0.671-0.118-0.917-0.354s-0.37-0.536-0.37-0.901c-0.043-1.931 0.558-3.61 1.802-5.037s2.789-2.29 4.634-2.591v-13.002h2.575v13.002c1.867 0.3 3.417 1.164 4.651 2.591s1.829 3.106 1.786 5.037c0 0.365-0.123 0.665-0.37 0.901s-0.552 0.354-0.917 0.354h-3.862c0 0.708-0.247 1.314-0.74 1.818s-1.105 0.756-1.834 0.756zM8.276 25.012v-10.299h-5.149c-0.429 0-0.772-0.166-1.030-0.499s-0.333-0.703-0.225-1.11l2.414-9.011c0.086-0.279 0.241-0.51 0.467-0.692s0.488-0.274 0.788-0.274h8.046c0.3 0 0.563 0.091 0.789 0.274s0.381 0.413 0.467 0.692l2.414 9.011c0.107 0.408 0.032 0.778-0.225 1.11s-0.601 0.499-1.030 0.499h-5.149v10.299h-2.575zM17.416 22.437h10.041c-0.257-1.159-0.858-2.092-1.802-2.8s-2.017-1.062-3.218-1.062c-1.18 0-2.242 0.354-3.186 1.062s-1.556 1.641-1.834 2.8zM4.8 12.138h9.526l-1.706-6.437h-6.083l-1.738 6.437z"></path>
</symbol>
<symbol id="icon-chair" viewBox="0 0 32 32">
<path d="M6.989 27.586c-0.365 0-0.67-0.123-0.917-0.37s-0.37-0.552-0.37-0.917v-1.287c-1.073 0-1.985-0.375-2.736-1.127s-1.126-1.663-1.126-2.736v-6.437c0-1.073 0.375-1.985 1.126-2.736s1.663-1.126 2.736-1.126v-2.575c0-1.073 0.375-1.985 1.126-2.736s1.663-1.126 2.736-1.126h12.874c1.073 0 1.985 0.375 2.736 1.126s1.126 1.663 1.126 2.736v2.575c1.073 0 1.985 0.375 2.736 1.126s1.126 1.663 1.126 2.736v6.437c0 1.073-0.375 1.985-1.126 2.736s-1.663 1.127-2.736 1.127v1.287c0 0.365-0.123 0.671-0.37 0.917s-0.552 0.37-0.917 0.37c-0.365 0-0.671-0.123-0.917-0.37s-0.37-0.552-0.37-0.917v-1.287h-15.448v1.287c0 0.365-0.123 0.671-0.37 0.917s-0.553 0.37-0.917 0.37zM5.701 22.437h20.598c0.365 0 0.671-0.123 0.917-0.37s0.37-0.552 0.37-0.917v-6.437c0-0.365-0.123-0.67-0.37-0.917s-0.552-0.37-0.917-0.37c-0.365 0-0.67 0.123-0.917 0.37s-0.37 0.553-0.37 0.917v5.149h-18.023v-5.149c0-0.365-0.123-0.67-0.37-0.917s-0.553-0.37-0.917-0.37c-0.365 0-0.67 0.123-0.917 0.37s-0.37 0.553-0.37 0.917v6.437c0 0.365 0.123 0.67 0.37 0.917s0.553 0.37 0.917 0.37zM9.563 17.287h12.874v-2.575c0-0.579 0.118-1.105 0.354-1.577s0.547-0.89 0.933-1.255v-3.605c0-0.365-0.123-0.67-0.37-0.917s-0.552-0.37-0.917-0.37h-12.874c-0.365 0-0.671 0.123-0.917 0.37s-0.37 0.553-0.37 0.917v3.605c0.386 0.365 0.697 0.783 0.933 1.255s0.354 0.998 0.354 1.577v2.575z"></path>
</symbol>
<symbol id="icon-door_open" viewBox="0 0 32 32">
<path d="M14.713 17.287c0.365 0 0.671-0.123 0.917-0.37s0.37-0.552 0.37-0.917-0.123-0.67-0.37-0.917c-0.247-0.247-0.553-0.37-0.917-0.37s-0.67 0.123-0.917 0.37c-0.247 0.247-0.37 0.553-0.37 0.917s0.123 0.67 0.37 0.917c0.247 0.247 0.553 0.37 0.917 0.37zM9.563 27.586v-2.575l7.724-1.287v-14.322c0-0.322-0.097-0.611-0.29-0.869s-0.44-0.408-0.74-0.451l-6.694-1.094v-2.575l7.080 1.159c0.944 0.172 1.717 0.612 2.317 1.32s0.901 1.534 0.901 2.478v16.478l-10.299 1.738zM4.414 27.586v-2.575h2.575v-18.023c0-0.729 0.252-1.341 0.756-1.834s1.11-0.74 1.818-0.74h12.874c0.73 0 1.341 0.247 1.834 0.74s0.74 1.105 0.74 1.834v18.023h2.575v2.575h-23.172zM9.563 25.012h12.874v-18.023h-12.874v18.023z"></path>
</symbol>

<symbol id="icon-expand_more" viewBox="0 0 32 32">
<path d="M11.294 15.991c0-0.218 0.030-0.42 0.091-0.604s0.165-0.365 0.315-0.542l7.52-8.893c0.16-0.19 0.357-0.291 0.59-0.304s0.44 0.088 0.623 0.304c0.182 0.216 0.273 0.455 0.273 0.717s-0.091 0.501-0.273 0.717l-7.276 8.605 7.276 8.605c0.16 0.19 0.246 0.422 0.257 0.698s-0.075 0.521-0.257 0.737c-0.182 0.216-0.384 0.323-0.606 0.323s-0.424-0.108-0.607-0.323l-7.52-8.893c-0.149-0.177-0.254-0.357-0.315-0.542s-0.091-0.386-0.091-0.604z"></path>
</symbol>

</defs>
</svg>
